<svg width="64" height="64" viewBox="0 0 64 64" fill="none" xmlns="http://www.w3.org/2000/svg">
<rect width="64" height="64" fill="#BCFF2E"/>
<g clip-path="url(#clip0_6013_19)">
<path d="M30.8119 14.082C29.8781 14.2628 29.171 14.56 28.5001 15.046C27.8338 15.5279 27.2717 16.287 26.9906 17.0943C26.705 17.8976 26.7912 18.9057 27.2082 19.7652C27.9969 21.3959 29.8237 22.404 31.8318 22.3237C33.0965 22.2714 34.1618 21.8618 35.0321 21.0946C35.8118 20.3998 36.2424 19.6287 36.4147 18.6205C36.4963 18.1426 36.4736 17.8735 36.2923 17.2389C35.8209 15.5761 34.3658 14.4033 32.3758 14.078C31.7367 13.9736 31.3559 13.9736 30.8119 14.082Z" fill="#480000"/>
<path d="M24.9326 21.9376C24.7467 21.9858 23.8492 22.516 23.3324 22.8855C22.7703 23.2831 21.8003 24.1547 21.1521 24.8495C20.8393 25.1829 19.9146 26.2472 19.0941 27.2152C17.6435 28.9342 16.6689 30.0307 14.8331 32.0148C13.2511 33.7257 12.5031 34.5652 11.2973 35.991C9.66093 37.9229 8.50955 39.2563 8.42796 39.3166C8.37356 39.3527 8.14238 39.3648 7.5123 39.3567L6.67369 39.3447L6.6601 35.7862C6.65103 32.3923 6.6465 32.2236 6.56944 32.1594C6.42438 32.0469 2.13164 32.067 2.00472 32.1835C1.99565 32.1915 2.00018 35.6978 2.01378 39.9752L2.04098 47.759H4.34827H6.65103V44.1523C6.65103 42.1722 6.66916 40.5295 6.68729 40.5054C6.70996 40.4693 9.04898 40.4492 15.8077 40.4331C20.8075 40.4211 25.0323 40.397 25.1955 40.3849C25.4221 40.3689 25.5083 40.3769 25.5581 40.4211C25.6035 40.4612 25.6442 40.6701 25.6805 41.0958C25.8981 43.4454 26.0794 44.558 26.4375 45.7508C26.7322 46.7188 26.8047 46.8513 27.2399 47.2208C27.6025 47.5261 27.7793 47.6184 28.1374 47.7028C28.3686 47.755 28.4728 47.759 28.6723 47.7229C29.2208 47.6265 29.7285 47.269 30.0322 46.767C30.6079 45.8071 30.9932 43.6302 30.9932 41.3127C30.9932 40.7062 31.0068 40.4532 31.0476 40.4171C31.1337 40.3407 32.2805 40.3488 32.3485 40.4251C32.3848 40.4612 32.4165 40.7825 32.4437 41.3127C32.5661 43.8029 32.8336 45.1966 33.441 46.522C33.5588 46.779 33.722 47.0642 33.8036 47.1566C34.1073 47.4939 34.6513 47.7229 35.1862 47.7349C35.4627 47.7389 35.5443 47.7229 35.8072 47.6064C36.1653 47.4498 36.5098 47.1405 36.7093 46.787C37.1626 45.9958 37.5207 43.5257 37.5207 41.2163C37.5207 40.5697 37.5343 40.3729 37.5796 40.3568C37.6793 40.3247 55.2175 40.3086 55.2809 40.3407C55.3217 40.3648 55.3353 41.1802 55.3353 44.1884V48L57.6607 47.992L59.9816 47.9799L59.9952 40.5094C60.0088 33.296 59.9998 32.7939 59.8819 32.3441L59.8592 32.2557H58.241C57.3525 32.2557 56.3371 32.2678 55.9835 32.2839L55.3353 32.308L55.3262 35.7259L55.3127 39.1439L54.9047 39.1559C54.6826 39.1599 54.474 39.1519 54.4468 39.1358C54.4197 39.1157 53.5221 38.0634 52.4569 36.7943C50.145 34.0471 49.9501 33.8262 48.2049 31.9344C46.5096 30.0989 46.1424 29.6772 44.4969 27.7172C42.7835 25.6689 42.3438 25.1708 41.6412 24.4639C40.4807 23.2912 39.4563 22.4959 38.4998 22.0139L38.2369 21.8814L37.7428 21.9095C37.4572 21.9256 37.158 21.9658 37.0311 22.0059C36.8226 22.0742 36.8135 22.0862 36.673 22.3995C35.9931 23.9057 36.5687 25.6287 38.323 27.3196C38.7582 27.7373 39.6376 28.4522 42.507 30.7094C46.4189 33.786 47.2893 34.4728 48.3545 35.3283C49.6464 36.3605 51.5865 37.955 52.4115 38.6579C52.824 39.0073 52.9419 39.1278 52.892 39.1559C52.7379 39.2483 37.6567 39.2684 37.566 39.176C37.5479 39.1559 37.5071 38.5655 37.4799 37.8586C37.4527 37.1517 37.4074 36.2842 37.3847 35.9307C37.362 35.5773 37.3212 34.9186 37.294 34.4648C37.1762 32.4365 37.0492 31.6935 36.7093 31.0669C36.392 30.4765 36.0656 30.2516 35.5352 30.2475C35.1499 30.2475 34.9913 30.3158 34.6377 30.6371C34.0303 31.1914 33.4002 32.1875 32.6432 33.8061C32.3077 34.517 32.1899 35.4448 32.2669 36.7702C32.3757 38.7262 32.3893 39.184 32.3349 39.2282C32.3032 39.2603 32.0811 39.2643 31.6278 39.2483L30.9705 39.2242L30.9433 38.4812C30.9252 38.0715 30.9116 36.8987 30.907 35.8785C30.9025 34.4808 30.8844 33.8904 30.8345 33.5089C30.7212 32.6895 30.5263 32.1112 30.1682 31.5328C30.0639 31.3681 29.7965 30.8701 29.5653 30.4283C29.3386 29.9865 29.0395 29.4523 28.8989 29.2435C28.5998 28.7896 28.151 28.3478 27.7612 28.1189C27.4892 27.9582 27.471 27.9542 27.1628 27.9703C26.782 27.9903 26.5463 28.0867 26.3106 28.3157C26.0069 28.6129 25.8029 29.0667 25.6442 29.7857C25.4629 30.6211 25.4085 33.9908 25.5173 37.4449C25.5445 38.4129 25.5581 39.2121 25.54 39.2282C25.5219 39.2443 25.0459 39.2724 24.4793 39.2884C23.21 39.3246 10.0553 39.3447 10.0145 39.3085C10.0009 39.2925 10.1188 39.176 10.2774 39.0515C10.4406 38.927 10.9982 38.4611 11.5195 38.0193C13.0561 36.7139 12.4669 37.1798 21.1793 30.364C24.0396 28.1269 24.9416 27.3638 25.5309 26.6971C26.4421 25.6568 26.909 24.5885 26.8546 23.6567C26.8319 23.2671 26.5508 22.2108 26.4421 22.1063C26.2879 21.9577 25.2907 21.8453 24.9326 21.9376Z" fill="#480000"/>
</g>
<defs>
<clipPath id="clip0_6013_19">
<rect width="60" height="34" fill="white" transform="translate(0 12)"/>
</clipPath>
</defs>
</svg>
