<svg width="32" height="32" viewBox="0 0 32 32" fill="none" xmlns="http://www.w3.org/2000/svg">
<rect width="32" height="32" fill="#BCFF2E"/>
<g clip-path="url(#clip0_6013_18)">
<path d="M15.406 7.04101C14.9391 7.13138 14.5855 7.27999 14.2501 7.52298C13.9169 7.76396 13.6359 8.14351 13.4953 8.54716C13.3525 8.9488 13.3956 9.45285 13.6041 9.88261C13.9985 10.6979 14.9119 11.202 15.916 11.1618C16.5483 11.1357 17.0809 10.9309 17.5161 10.5473C17.9059 10.1999 18.1213 9.81433 18.2074 9.31027C18.2482 9.0713 18.2368 8.93675 18.1462 8.61945C17.9105 7.78806 17.1829 7.20167 16.1879 7.039C15.8684 6.98679 15.678 6.98679 15.406 7.04101Z" fill="#480000"/>
<path d="M12.4663 10.9688C12.3734 10.9929 11.9246 11.258 11.6662 11.4428C11.3852 11.6416 10.9001 12.0773 10.576 12.4248C10.4196 12.5914 9.95728 13.1236 9.54704 13.6076C8.82176 14.4671 8.33447 15.0153 7.41654 16.0074C6.62553 16.8629 6.25156 17.2826 5.64867 17.9955C4.83047 18.9614 4.25478 19.6282 4.21398 19.6583C4.18678 19.6764 4.07119 19.6824 3.75615 19.6784L3.33685 19.6723L3.33005 17.8931C3.32551 16.1962 3.32325 16.1118 3.28472 16.0797C3.21219 16.0234 1.06582 16.0335 1.00236 16.0917C0.997825 16.0957 1.00009 17.8489 1.00689 19.9876L1.02049 23.8795H2.17414H3.32551V22.0761C3.32551 21.0861 3.33458 20.2648 3.34365 20.2527C3.35498 20.2346 4.52449 20.2246 7.90383 20.2166C10.4038 20.2105 12.5161 20.1985 12.5977 20.1925C12.7111 20.1844 12.7541 20.1884 12.7791 20.2105C12.8017 20.2306 12.8221 20.335 12.8403 20.5479C12.949 21.7227 13.0397 22.279 13.2188 22.8754C13.3661 23.3594 13.4023 23.4257 13.6199 23.6104C13.8012 23.763 13.8896 23.8092 14.0687 23.8514C14.1843 23.8775 14.2364 23.8795 14.3361 23.8614C14.6104 23.8132 14.8642 23.6345 15.0161 23.3835C15.3039 22.9035 15.4966 21.8151 15.4966 20.6564C15.4966 20.3531 15.5034 20.2266 15.5238 20.2085C15.5668 20.1704 16.1403 20.1744 16.1743 20.2125C16.1924 20.2306 16.2083 20.3913 16.2219 20.6564C16.2831 21.9014 16.4168 22.5983 16.7205 23.261C16.7794 23.3895 16.861 23.5321 16.9018 23.5783C17.0537 23.747 17.3256 23.8614 17.5931 23.8675C17.7313 23.8695 17.7721 23.8614 17.9036 23.8032C18.0827 23.7249 18.2549 23.5702 18.3546 23.3935C18.5813 22.9979 18.7603 21.7629 18.7603 20.6082C18.7603 20.2848 18.7671 20.1864 18.7898 20.1784C18.8397 20.1623 27.6087 20.1543 27.6405 20.1704C27.6609 20.1824 27.6677 20.5901 27.6677 22.0942V24L28.8304 23.996L29.9908 23.99L29.9976 20.2547C30.0044 16.648 29.9999 16.397 29.941 16.1721L29.9296 16.1279H29.1205C28.6762 16.1279 28.1686 16.1339 27.9918 16.1419L27.6677 16.154L27.6631 17.863L27.6563 19.5719L27.4523 19.578C27.3413 19.58 27.237 19.5759 27.2234 19.5679C27.2098 19.5579 26.7611 19.0317 26.2284 18.3971C25.0725 17.0235 24.9751 16.9131 24.1025 15.9672C23.2548 15.0495 23.0712 14.8386 22.2485 13.8586C21.3917 12.8344 21.1719 12.5854 20.8206 12.232C20.2404 11.6456 19.7281 11.248 19.2499 11.007L19.1184 10.9407L18.8714 10.9548C18.7286 10.9628 18.579 10.9829 18.5156 11.003C18.4113 11.0371 18.4068 11.0431 18.3365 11.1998C17.9965 11.9528 18.2844 12.8143 19.1615 13.6598C19.3791 13.8687 19.8188 14.2261 21.2535 15.3547C23.2095 16.893 23.6446 17.2364 24.1773 17.6641C24.8232 18.1802 25.7933 18.9775 26.2058 19.3289C26.412 19.5036 26.4709 19.5639 26.446 19.578C26.369 19.6241 18.8283 19.6342 18.783 19.588C18.7739 19.578 18.7535 19.2827 18.7399 18.9293C18.7263 18.5759 18.7037 18.1421 18.6923 17.9654C18.681 17.7887 18.6606 17.4593 18.647 17.2324C18.5881 16.2182 18.5246 15.8467 18.3546 15.5334C18.196 15.2382 18.0328 15.1258 17.7676 15.1238C17.575 15.1238 17.4956 15.1579 17.3188 15.3186C17.0151 15.5957 16.7001 16.0937 16.3216 16.903C16.1539 17.2585 16.0949 17.7224 16.1335 18.3851C16.1879 19.3631 16.1947 19.592 16.1675 19.6141C16.1516 19.6302 16.0405 19.6322 15.8139 19.6241L15.4853 19.6121L15.4717 19.2406C15.4626 19.0357 15.4558 18.4493 15.4535 17.9393C15.4513 17.2404 15.4422 16.9452 15.4173 16.7544C15.3606 16.3448 15.2631 16.0556 15.0841 15.7664C15.032 15.6841 14.8982 15.435 14.7826 15.2141C14.6693 14.9932 14.5197 14.7262 14.4495 14.6217C14.2999 14.3948 14.0755 14.1739 13.8806 14.0594C13.7446 13.9791 13.7355 13.9771 13.5814 13.9851C13.391 13.9952 13.2732 14.0434 13.1553 14.1578C13.0034 14.3064 12.9015 14.5334 12.8221 14.8928C12.7315 15.3105 12.7043 16.9954 12.7587 18.7225C12.7723 19.2064 12.7791 19.6061 12.77 19.6141C12.7609 19.6221 12.5229 19.6362 12.2396 19.6442C11.605 19.6623 5.02765 19.6723 5.00725 19.6543C5.00045 19.6462 5.05938 19.588 5.13871 19.5257C5.2203 19.4635 5.49908 19.2305 5.75973 19.0096C6.52807 18.357 6.23343 18.5899 10.5896 15.182C12.0198 14.0634 12.4708 13.6819 12.7655 13.3485C13.221 12.8284 13.4545 12.2942 13.4273 11.8283C13.4159 11.6335 13.2754 11.1054 13.221 11.0532C13.144 10.9789 12.6453 10.9226 12.4663 10.9688Z" fill="#480000"/>
</g>
<defs>
<clipPath id="clip0_6013_18">
<rect width="30" height="17" fill="white" transform="translate(0 6)"/>
</clipPath>
</defs>
</svg>
