<?xml version="1.0" standalone="no"?>
<!DOCTYPE svg PUBLIC "-//W3C//DTD SVG 20010904//EN"
 "http://www.w3.org/TR/2001/REC-SVG-20010904/DTD/svg10.dtd">
<svg version="1.0" xmlns="http://www.w3.org/2000/svg"
 width="1280.000000pt" height="847.000000pt" viewBox="0 0 1280.000000 847.000000"
 preserveAspectRatio="xMidYMid meet">
<g transform="translate(0.000000,847.000000) scale(0.100000,-0.100000)"
fill="#fff" stroke="none">
<path d="M6360 8445 c-206 -45 -362 -119 -510 -240 -147 -120 -271 -309 -333
-510 -63 -200 -44 -451 48 -665 174 -406 577 -657 1020 -637 279 13 514 115
706 306 172 173 267 365 305 616 18 119 13 186 -27 344 -104 414 -425 706
-864 787 -141 26 -225 26 -345 -1z"/>
<path d="M5063 6489 c-41 -12 -239 -144 -353 -236 -124 -99 -338 -316 -481
-489 -69 -83 -273 -348 -454 -589 -320 -428 -535 -701 -940 -1195 -349 -426
-514 -635 -780 -990 -361 -481 -615 -813 -633 -828 -12 -9 -63 -12 -202 -10
l-185 3 -3 886 c-2 845 -3 887 -20 903 -32 28 -979 23 -1007 -6 -2 -2 -1 -875
2 -1940 l6 -1938 509 0 508 0 0 898 c0 493 4 902 8 908 5 9 521 14 2012 18
1103 3 2035 9 2071 12 50 4 69 2 80 -9 10 -10 19 -62 27 -168 48 -585 88 -862
167 -1159 65 -241 81 -274 177 -366 80 -76 119 -99 198 -120 51 -13 74 -14
118 -5 121 24 233 113 300 238 127 239 212 781 212 1358 0 151 3 214 12 223
19 19 272 17 287 -2 8 -9 15 -89 21 -221 27 -620 86 -967 220 -1297 26 -64 62
-135 80 -158 67 -84 187 -141 305 -144 61 -1 79 3 137 32 79 39 155 116 199
204 100 197 179 812 179 1387 0 161 3 210 13 214 22 8 3891 12 3905 4 9 -6 12
-209 12 -958 l0 -949 513 2 512 3 3 1860 c3 1796 1 1921 -25 2033 l-5 22 -357
0 c-196 0 -420 -3 -498 -7 l-143 -6 -2 -851 -3 -851 -90 -3 c-49 -1 -95 1
-101 5 -6 5 -204 267 -439 583 -510 684 -553 739 -938 1210 -374 457 -455 562
-818 1050 -378 510 -475 634 -630 810 -256 292 -482 490 -693 610 l-58 33
-109 -7 c-63 -4 -129 -14 -157 -24 -46 -17 -48 -20 -79 -98 -150 -375 -23
-804 364 -1225 96 -104 290 -282 923 -844 863 -766 1055 -937 1290 -1150 285
-257 713 -654 895 -829 91 -87 117 -117 106 -124 -34 -23 -3361 -28 -3381 -5
-4 5 -13 152 -19 328 -6 176 -16 392 -21 480 -5 88 -14 252 -20 365 -26 505
-54 690 -129 846 -70 147 -142 203 -259 204 -85 0 -120 -17 -198 -97 -134
-138 -273 -386 -440 -789 -74 -177 -100 -408 -83 -738 24 -487 27 -601 15
-612 -7 -8 -56 -9 -156 -5 l-145 6 -6 185 c-4 102 -7 394 -8 648 -1 348 -5
495 -16 590 -25 204 -68 348 -147 492 -23 41 -82 165 -133 275 -50 110 -116
243 -147 295 -66 113 -165 223 -251 280 -60 40 -64 41 -132 37 -84 -5 -136
-29 -188 -86 -67 -74 -112 -187 -147 -366 -40 -208 -52 -1047 -28 -1907 6
-241 9 -440 5 -444 -4 -4 -109 -11 -234 -15 -280 -9 -3182 -14 -3191 -5 -3 4
23 33 58 64 36 31 159 147 274 257 339 325 209 209 2131 1906 631 557 830 747
960 913 201 259 304 525 292 757 -5 97 -67 360 -91 386 -34 37 -254 65 -333
42z"/>
</g>
</svg>
